<?xml version="1.0" encoding="iso-8859-1"?>
<!-- Generator: Adobe Illustrator 19.0.0, SVG Export Plug-In . SVG Version: 6.00 Build 0)  -->
<svg version="1.1" id="Layer_1" xmlns="http://www.w3.org/2000/svg" xmlns:xlink="http://www.w3.org/1999/xlink" x="0px" y="0px"
	 viewBox="0 0 512 512" style="enable-background:new 0 0 512 512;" xml:space="preserve">
<g>
	<g>
		<path d="M324.824,221.944v55.895c0,25.022,20.356,45.38,45.38,45.38c25.022,0,45.38-20.358,45.38-45.38v-55.895H324.824z"/>
	</g>
</g>
<g>
	<g>
		<path d="M448.86,221.943v55.895c0,43.372-35.286,78.658-78.658,78.658c-43.372,0-78.658-35.286-78.658-78.658v-55.895h-63.137
			v275.522H512V221.943H448.86z"/>
	</g>
</g>
<g>
	<g>
		<path d="M317.188,144.227h-45.385v-32.332c0-53.684-43.675-97.359-97.359-97.359s-97.359,43.675-97.359,97.359v32.332H31.697
			L0,461.641h195.13V188.666h126.496L317.188,144.227z M238.525,144.228H110.362v-32.332c0-35.335,28.747-64.082,64.081-64.082
			c35.335,0,64.082,28.747,64.082,64.082V144.228z"/>
	</g>
</g>
<g>
</g>
<g>
</g>
<g>
</g>
<g>
</g>
<g>
</g>
<g>
</g>
<g>
</g>
<g>
</g>
<g>
</g>
<g>
</g>
<g>
</g>
<g>
</g>
<g>
</g>
<g>
</g>
<g>
</g>
</svg>
